{"title":"Metro.1997.iNTERNAL.DVDRip.XviD-EXViDiNT","uid":12465993,"size":1481562125,"categoryP":"video","categoryS":"movies","magnet":"?xt=urn:btih:3e7be731f3a79eb83918d7dd695faa9b4d873493&amp;dn=Metro.1997.iNTERNAL.DVDRip.XviD-EXViDiNT&amp;tr=udp%3A%2F%2Ftracker.openbittorrent.com%3A80&amp;tr=udp%3A%2F%2Fopen.demonii.com%3A1337&amp;tr=udp%3A%2F%2Ftracker.coppersurfer.tk%3A6969&amp;tr=udp%3A%2F%2Fexodus.desync.com%3A6969","seeders":2,"leechers":2,"uploader":"TvTeam","files":10,"time":1442852492,"description":"------------------------------------------------------------------------\n\n &lt;a href=&quot; https://www.torrenting.com&quot; rel=&quot;nofollow&quot; target=&quot;_NEW&quot;&gt; https://www.torrenting.com&lt;/a&gt;\n\nSign up is OPEN - for time being. Come and have fun.\n                                         \n         Filled the Archives             \n                                    \n     SP               (C) 2009      \n                                                                                   \n                Metro.1997.iNTERNAL.DVDRip.XviD-EXViDiNT                            \n                                                                                   \n                                                                                  \n     \n                                                                                               \nEXViD aims to iNTERNAL those releases which have been lost in the archives.\nEXViD aims to PRE non-internal releases which have poor sources and are likely skipped by others.\n &lt;a href=&quot;\nhttp://www.imdb.com/title/tt0119664/&quot; rel=&quot;nofollow&quot; target=&quot;_NEW&quot;&gt;\nhttp://www.imdb.com/title/tt0119664/&lt;/a&gt;\nSubtitles: EN, NL, PT, EN HI\nDate: 2011.07\n\nDirector: Thomas Carter\n\nGenres: Action | Comedy | Crime | Drama | Thriller\n\nPlot:\nRoper, a hostage negotiator catches a murderous bank robber after a blown heist. The bank robber\nescapes and immediately goes after the man who put him behind bars. The ending is played out\nwith Roper and his partner McCall attempting to rescue Roper's kidnapped girlfriend. A major\nelement in the plot is the relationship between Roper and his girlfriend.\n\nCast:\nEddie Murphy \t ... \tInsp. Scott Roper \nKim Miyori \t ... \t Detective Kimura \nArt Evans \t ... \t Lt. Sam Baffett \nJames Carpenter \t ... \t Officer Forbes \nMichael Rapaport \t ... \tKevin McCall \nDonal Logue \t ... \t Earl \nJeni Chua \t ... \t Debbie, Earl's Hostage \nDick Bright \t ... \t Bank Manager \nDavid Michael Silverman \t ... \t SWAT Officer Jennings \nDenis Arndt \t ... \t Capt. Frank Solis \nFrank Somerville \t ... \t Reporter \nMalou Nubla \t ... \t Reporter \nCarmen Ejogo \t ... \t Veronica 'Ronnie' Tate \nNino Degennaro \t ... \t Repoman \nMichael Wincott \t ... \tMichael Korda\n\nStats:\nFormat                           : AVI\nFormat/Info                      : Audio Video Interleave\nFile size                        : 1.37 GiB\nDuration                         : 1h 52mn\nOverall bit rate                 : 1 735 Kbps\nWriting application              : VirtualDubMod 1.5.10.2 (build 2540/release)\nWriting library                  : VirtualDubMod build 2540/release\n\nVideo\nID                               : 0\nFormat                           : MPEG-4 Visual\nFormat profile                   : Advanced Simple@L5\nFormat settings, BVOP            : Yes\nFormat settings, QPel            : No\nFormat settings, GMC             : No warppoints\nFormat settings, Matrix          : Default (H.263)\nMuxing mode                      : Packed bitstream\nCodec ID                         : XVID\nCodec ID/Hint                    : XviD\nDuration                         : 1h 52mn\nBit rate                         : 1 341 Kbps\nWidth                            : 640 pixels\nHeight                           : 272 pixels\nDisplay aspect ratio             : 2.35:1\nFrame rate                       : 25.000 fps\nColor space                      : YUV\nChroma subsampling               : 4:2:0\nBit depth                        : 8 bits\nScan type                        : Progressive\nBits/(Pixel*Frame)               : 0.308\nStream size                      : 1.06 GiB (77%)\nWriting library                  : XviD 62\n\nAudio\nID                               : 1\nFormat                           : AC-3\nFormat/Info                      : Audio Coding 3\nMode extension                   : CM (complete main)\nCodec ID                         : 2000\nDuration                         : 1h 52mn\nBit rate mode                    : Constant\nBit rate                         : 384 Kbps\nChannel(s)                       : 6 channels\nChannel positions                : Front: L C R, Side: L R, LFE\nSampling rate                    : 48.0 KHz\nBit depth                        : 16 bits\nStream size                      : 310 MiB (22%)\nAlignment                        : Split accross interleaves\nInterleave, duration             : 40 ms (1.00 video frame)\nInterleave, preload duration     : 500 ms\n\n\n\n\nRelease notes:\nenjoy!\n\nLooking for:\n75TB+ Archives\nDUTCH/FLEMiSH Archives\n                                                                                                    \nGreets: CRBS EPiSODE FiCO FLS iLS KLASSiGER LiPSYNC MADE NODLABS RUNNER SPRiNTER      \n   \n\n                                                                    ASCII DONE BY XX^NFO 2oo9","torrent":{"xt":"urn:btih:3e7be731f3a79eb83918d7dd695faa9b4d873493","amp;dn":"Metro.1997.iNTERNAL.DVDRip.XviD-EXViDiNT","amp;tr":["udp%3A%2F%2Ftracker.openbittorrent.com%3A80","udp%3A%2F%2Fopen.demonii.com%3A1337","udp%3A%2F%2Ftracker.coppersurfer.tk%3A6969","udp%3A%2F%2Fexodus.desync.com%3A6969"],"infoHash":"3e7be731f3a79eb83918d7dd695faa9b4d873493","infoHashBuffer":{"type":"Buffer","data":[62,123,231,49,243,167,158,184,57,24,215,221,105,95,170,155,77,135,52,147]},"announce":[],"urlList":[]}}